{
    "asset" : {
        "generator" : "Khronos glTF Blender I/O v3.4.50",
        "version" : "2.0"
    },
    "scene" : 0,
    "scenes" : [
        {
            "name" : "Scene",
            "nodes" : [
                0
            ]
        }
    ],
    "nodes" : [
        {
            "mesh" : 0,
            "name" : "33_1-3_Record"
        }
    ],
    "materials" : [
        {
            "doubleSided" : true,
            "name" : "#REC0002_Textures",
            "pbrMetallicRoughness" : {}
        }
    ],
    "meshes" : [
        {
            "name" : "33_1-3_Record",
            "primitives" : [
                {
                    "attributes" : {
                        "COLOR_0" : 0,
                        "POSITION" : 1,
                        "TEXCOORD_0" : 2,
                        "NORMAL" : 3
                    },
                    "indices" : 4,
                    "material" : 0
                }
            ]
        }
    ],
    "accessors" : [
        {
            "bufferView" : 0,
            "componentType" : 5123,
            "count" : 646,
            "normalized" : true,
            "type" : "VEC4"
        },
        {
            "bufferView" : 1,
            "componentType" : 5126,
            "count" : 646,
            "max" : [
                0.14999999105930328,
                0.0010499998461455107,
                0.14999999105930328
            ],
            "min" : [
                -0.14999999105930328,
                -2.9103830456733704e-10,
                -0.14999999105930328
            ],
            "type" : "VEC3"
        },
        {
            "bufferView" : 2,
            "componentType" : 5126,
            "count" : 646,
            "type" : "VEC2"
        },
        {
            "bufferView" : 3,
            "componentType" : 5126,
            "count" : 646,
            "type" : "VEC3"
        },
        {
            "bufferView" : 4,
            "componentType" : 5123,
            "count" : 2304,
            "type" : "SCALAR"
        }
    ],
    "bufferViews" : [
        {
            "buffer" : 0,
            "byteLength" : 5168,
            "byteOffset" : 0,
            "target" : 34962
        },
        {
            "buffer" : 0,
            "byteLength" : 7752,
            "byteOffset" : 5168,
            "target" : 34962
        },
        {
            "buffer" : 0,
            "byteLength" : 5168,
            "byteOffset" : 12920,
            "target" : 34962
        },
        {
            "buffer" : 0,
            "byteLength" : 7752,
            "byteOffset" : 18088,
            "target" : 34962
        },
        {
            "buffer" : 0,
            "byteLength" : 4608,
            "byteOffset" : 25840,
            "target" : 34963
        }
    ],
    "buffers" : [
        {
            "byteLength" : 30448,
            "uri" : "data:application/octet-stream;base64,"
        }
    ]
}
